# xmcd CD database file
#
# Track frame offsets:
#	150
#	9190
#	12354
#	18226
#	25201
#	37285
#	48939
#	59986
#	65363
#	74396
#	84537
#	96343
#	106421
#	117800
#	126497
#	129572
#	140389
#	146699
#	164709
#	167518
#	177779
#	187824
#	189711
#	195839
#	203815
#	214820
#
# Disc length: 2957 seconds
#
# Revision: 0
# Processed by: cddbd v1.5.2PL0 Copyright (c) Steve Scherf et al.
# Submitted via: CDex 1.51
#
DISCID=790b8b1a
DTITLE=Thierry GEFFROTIN - Nelson MANDELA
DYEAR=2010
DGENRE=AudioBook
TTITLE0=Une cérémonie initiatique
TTITLE1="Jamais, jamais, plus jamais ... " (N. MANDELA)
TTITLE2=Un exil déterminant
TTITLE3=Des Blancs "grands comme des dieux"
TTITLE4=La première grève et la découverte de l'ANC
TTITLE5=L'Afrique du Sud, un pays ségrégationniste depuis longtemps
TTITLE6=La "Defiance Compaign" et les "Volontaires pour la prison"
TTITLE7=La résistance pacifique a vécu
TTITLE8=Le procès de Rivonia
TTITLE9=La prison de Robben Island
TTITLE10=Un prisonier de haute sécurité
TTITLE11=L'Université Mandela
TTITLE12=La lutte et les premiers contacts avec l'état sud-africain
TTITLE13=La "cage dorée" et les premières libérations
TTITLE14=Les annonces historiques de Frederic DE KLERK
TTITLE15="Le gouvernement a pris la ferme décision de libérer M. Mandela..." (F. DE KLERK)
TTITLE16=Nelson MANDELA pris de court
TTITLE17=Le jour de la libération
TTITLE18="Je ne suis pas un prophète" (N. MANDELA)
TTITLE19=La vraie négociation commence
TTITLE20=La fin de l'Apartheid
TTITLE21=L'élection présidentielle du 27 avril 1994
TTITLE22="Le temps est venu de panser nos blessures" (N. MANDELA)
TTITLE23=Le maillot n° 6
TTITLE24="Si nos ancêtres pouvaient voir ... " 
TTITLE25=Hymne nationnal sud-africain
EXTD=YEAR: 2010
EXTT0=
EXTT1=
EXTT2=
EXTT3=
EXTT4=
EXTT5=
EXTT6=
EXTT7=
EXTT8=
EXTT9=
EXTT10=
EXTT11=
EXTT12=
EXTT13=
EXTT14=
EXTT15=
EXTT16=
EXTT17=
EXTT18=
EXTT19=
EXTT20=
EXTT21=
EXTT22=
EXTT23=
EXTT24=
EXTT25=
PLAYORDER=
